<?plantuml 1.2026.2?><svg xmlns="http://www.w3.org/2000/svg" xmlns:xlink="http://www.w3.org/1999/xlink" contentStyleType="text/css" data-diagram-type="DESCRIPTION" height="793px" preserveAspectRatio="none" style="width:636px;height:793px;background:#FFFFFF;" version="1.1" viewBox="0 0 636 793" width="636px" zoomAndPan="magnify"><defs/><g><!--entity seed--><g class="entity" data-qualified-name="seed" data-source-line="5" id="ent0002"><rect fill="#FFFFFF" height="36.2969" rx="2.5" ry="2.5" style="stroke:#000000;stroke-width:1;" width="53.4072" x="165.5" y="12"/><text fill="#000000" font-family="Verdana" font-size="14" lengthAdjust="spacing" textLength="33.4072" x="175.5" y="34.9951">seed</text></g><!--entity csmith--><g class="entity" data-qualified-name="csmith" data-source-line="6" id="ent0003"><rect fill="#FFFFFF" height="36.2969" rx="2.5" ry="2.5" style="stroke:#000000;stroke-width:1;" width="70.5518" x="253.5" y="12"/><text fill="#000000" font-family="Verdana" font-size="14" lengthAdjust="spacing" textLength="50.5518" x="263.5" y="34.9951">CSmith</text></g><!--entity random_c--><g class="entity" data-qualified-name="random_c" data-source-line="7" id="ent0004"><path d="M360,14.5 L360,45.7969 A2.5,2.5 0 0 0 362.5,48.2969 L443.9453,48.2969 A2.5,2.5 0 0 0 446.4453,45.7969 L446.4453,22 L436.4453,12 L362.5,12 A2.5,2.5 0 0 0 360,14.5" fill="#FFFFFF" style="stroke:#000000;stroke-width:1;"/><path d="M436.4453,12 L436.4453,19.5 A2.5,2.5 0 0 0 438.9453,22 L446.4453,22" fill="#FFFFFF" style="stroke:#000000;stroke-width:1;"/><text fill="#000000" font-family="Verdana" font-size="14" lengthAdjust="spacing" textLength="66.4453" x="370" y="34.9951">random.c</text></g><!--entity gen--><g class="entity" data-qualified-name="gen" data-source-line="12" id="ent0007"><rect fill="#FFFFFF" height="36.2969" rx="2.5" ry="2.5" style="stroke:#000000;stroke-width:1;" width="167.3281" x="319.5" y="108"/><text fill="#000000" font-family="Verdana" font-size="14" lengthAdjust="spacing" textLength="147.3281" x="329.5" y="130.9951">generate_harness.py</text></g><!--entity rw_c--><g class="entity" data-qualified-name="rw_c" data-source-line="15" id="ent0009"><path d="M170.5,206.5 L170.5,254.0938 A2.5,2.5 0 0 0 173,256.5938 L262.8535,256.5938 A2.5,2.5 0 0 0 265.3535,254.0938 L265.3535,214 L255.3535,204 L173,204 A2.5,2.5 0 0 0 170.5,206.5" fill="#FFFFFF" style="stroke:#000000;stroke-width:1;"/><path d="M255.3535,204 L255.3535,211.5 A2.5,2.5 0 0 0 257.8535,214 L265.3535,214" fill="#FFFFFF" style="stroke:#000000;stroke-width:1;"/><text fill="#000000" font-family="Verdana" font-size="14" lengthAdjust="spacing" textLength="66.4453" x="180.5" y="226.9951">random.c</text><text fill="#000000" font-family="Verdana" font-size="14" lengthAdjust="spacing" textLength="74.8535" x="180.5" y="243.292">(rewritten)</text></g><!--entity harness--><g class="entity" data-qualified-name="harness" data-source-line="16" id="ent0010"><path d="M300.5,215 L300.5,246.2969 A2.5,2.5 0 0 0 303,248.7969 L385.4297,248.7969 A2.5,2.5 0 0 0 387.9297,246.2969 L387.9297,222.5 L377.9297,212.5 L303,212.5 A2.5,2.5 0 0 0 300.5,215" fill="#FFFFFF" style="stroke:#000000;stroke-width:1;"/><path d="M377.9297,212.5 L377.9297,220 A2.5,2.5 0 0 0 380.4297,222.5 L387.9297,222.5" fill="#FFFFFF" style="stroke:#000000;stroke-width:1;"/><text fill="#000000" font-family="Verdana" font-size="14" lengthAdjust="spacing" textLength="67.4297" x="310.5" y="235.4951">harness.c</text></g><!--entity plan--><g class="entity" data-qualified-name="plan" data-source-line="17" id="ent0011"><path d="M423,215 L423,246.2969 A2.5,2.5 0 0 0 425.5,248.7969 L498.4551,248.7969 A2.5,2.5 0 0 0 500.9551,246.2969 L500.9551,222.5 L490.9551,212.5 L425.5,212.5 A2.5,2.5 0 0 0 423,215" fill="#FFFFFF" style="stroke:#000000;stroke-width:1;"/><path d="M490.9551,212.5 L490.9551,220 A2.5,2.5 0 0 0 493.4551,222.5 L500.9551,222.5" fill="#FFFFFF" style="stroke:#000000;stroke-width:1;"/><text fill="#000000" font-family="Verdana" font-size="14" lengthAdjust="spacing" textLength="57.9551" x="433" y="235.4951">plan.csv</text></g><!--entity targets--><g class="entity" data-qualified-name="targets" data-source-line="18" id="ent0012"><path d="M536,215 L536,246.2969 A2.5,2.5 0 0 0 538.5,248.7969 L627.3213,248.7969 A2.5,2.5 0 0 0 629.8213,246.2969 L629.8213,222.5 L619.8213,212.5 L538.5,212.5 A2.5,2.5 0 0 0 536,215" fill="#FFFFFF" style="stroke:#000000;stroke-width:1;"/><path d="M619.8213,212.5 L619.8213,220 A2.5,2.5 0 0 0 622.3213,222.5 L629.8213,222.5" fill="#FFFFFF" style="stroke:#000000;stroke-width:1;"/><text fill="#000000" font-family="Verdana" font-size="14" lengthAdjust="spacing" textLength="73.8213" x="546" y="235.4951">targets.txt</text></g><!--entity gcc_o2--><g class="entity" data-qualified-name="gcc_o2" data-source-line="25" id="ent0017"><rect fill="#FFFFFF" height="36.2969" rx="2.5" ry="2.5" style="stroke:#000000;stroke-width:1;" width="73.71" x="12" y="317"/><text fill="#000000" font-family="Verdana" font-size="14" lengthAdjust="spacing" textLength="53.71" x="22" y="339.9951">gcc -O2</text></g><!--entity gcc_lto--><g class="entity" data-qualified-name="gcc_lto" data-source-line="26" id="ent0018"><rect fill="#FFFFFF" height="36.2969" rx="2.5" ry="2.5" style="stroke:#000000;stroke-width:1;" width="76.6563" x="121.5" y="317"/><text fill="#000000" font-family="Verdana" font-size="14" lengthAdjust="spacing" textLength="56.6563" x="131.5" y="339.9951">gcc -flto</text></g><!--entity clang_o2--><g class="entity" data-qualified-name="clang_o2" data-source-line="27" id="ent0019"><rect fill="#FFFFFF" height="36.2969" rx="2.5" ry="2.5" style="stroke:#000000;stroke-width:1;" width="87.3545" x="233.5" y="317"/><text fill="#000000" font-family="Verdana" font-size="14" lengthAdjust="spacing" textLength="67.3545" x="243.5" y="339.9951">clang -O2</text></g><!--entity more_compilers--><g class="entity" data-qualified-name="more_compilers" data-source-line="28" id="ent0020"><rect fill="#FFFFFF" height="36.2969" rx="2.5" ry="2.5" style="stroke:#000000;stroke-width:1;" width="33.3506" x="355.5" y="317"/><text fill="#000000" font-family="Verdana" font-size="14" lengthAdjust="spacing" textLength="13.3506" x="365.5" y="339.9951">...</text></g><!--entity analyze--><g class="entity" data-qualified-name="analyze" data-source-line="35" id="ent0025"><rect fill="#FFFFFF" height="52.5938" rx="2.5" ry="2.5" style="stroke:#000000;stroke-width:1;" width="161.3535" x="137.5" y="413"/><text fill="#000000" font-family="Verdana" font-size="14" lengthAdjust="spacing" textLength="127.0596" x="147.5" y="435.9951">analyze_binary.py</text><text fill="#000000" font-family="Verdana" font-size="14" lengthAdjust="spacing" textLength="141.3535" x="147.5" y="452.292">(one run per binary)</text></g><!--entity json1--><g class="entity" data-qualified-name="json1" data-source-line="42" id="ent0030"><path d="M16,528.5 L16,559.7969 A2.5,2.5 0 0 0 18.5,562.2969 L123.2559,562.2969 A2.5,2.5 0 0 0 125.7559,559.7969 L125.7559,536 L115.7559,526 L18.5,526 A2.5,2.5 0 0 0 16,528.5" fill="#FFFFFF" style="stroke:#000000;stroke-width:1;"/><path d="M115.7559,526 L115.7559,533.5 A2.5,2.5 0 0 0 118.2559,536 L125.7559,536" fill="#FFFFFF" style="stroke:#000000;stroke-width:1;"/><text fill="#000000" font-family="Verdana" font-size="14" lengthAdjust="spacing" textLength="89.7559" x="26" y="548.9951">analysis.json</text></g><!--entity json2--><g class="entity" data-qualified-name="json2" data-source-line="43" id="ent0031"><path d="M161,528.5 L161,559.7969 A2.5,2.5 0 0 0 163.5,562.2969 L272.7061,562.2969 A2.5,2.5 0 0 0 275.2061,559.7969 L275.2061,536 L265.2061,526 L163.5,526 A2.5,2.5 0 0 0 161,528.5" fill="#FFFFFF" style="stroke:#000000;stroke-width:1;"/><path d="M265.2061,526 L265.2061,533.5 A2.5,2.5 0 0 0 267.7061,536 L275.2061,536" fill="#FFFFFF" style="stroke:#000000;stroke-width:1;"/><text fill="#000000" font-family="Verdana" font-size="14" lengthAdjust="spacing" textLength="89.7559" x="171" y="548.9951">analysis.json</text></g><!--entity json3--><g class="entity" data-qualified-name="json3" data-source-line="44" id="ent0032"><path d="M310.5,528.5 L310.5,559.7969 A2.5,2.5 0 0 0 313,562.2969 L426.6563,562.2969 A2.5,2.5 0 0 0 429.1563,559.7969 L429.1563,536 L419.1563,526 L313,526 A2.5,2.5 0 0 0 310.5,528.5" fill="#FFFFFF" style="stroke:#000000;stroke-width:1;"/><path d="M419.1563,526 L419.1563,533.5 A2.5,2.5 0 0 0 421.6563,536 L429.1563,536" fill="#FFFFFF" style="stroke:#000000;stroke-width:1;"/><text fill="#000000" font-family="Verdana" font-size="14" lengthAdjust="spacing" textLength="89.7559" x="320.5" y="548.9951">analysis.json</text></g><!--entity collect--><g class="entity" data-qualified-name="collect" data-source-line="50" id="ent0036"><rect fill="#FFFFFF" height="36.2969" rx="2.5" ry="2.5" style="stroke:#000000;stroke-width:1;" width="141.6729" x="147" y="622"/><text fill="#000000" font-family="Verdana" font-size="14" lengthAdjust="spacing" textLength="121.6729" x="157" y="644.9951">collect_results.py</text></g><!--entity results--><g class="entity" data-qualified-name="results" data-source-line="56" id="ent0040"><path d="M159,720.5 L159,784.3906 A2.5,2.5 0 0 0 161.5,786.8906 L274.7393,786.8906 A2.5,2.5 0 0 0 277.2393,784.3906 L277.2393,728 L267.2393,718 L161.5,718 A2.5,2.5 0 0 0 159,720.5" fill="#FFFFFF" style="stroke:#000000;stroke-width:1;"/><path d="M267.2393,718 L267.2393,725.5 A2.5,2.5 0 0 0 269.7393,728 L277.2393,728" fill="#FFFFFF" style="stroke:#000000;stroke-width:1;"/><text fill="#000000" font-family="Verdana" font-size="14" lengthAdjust="spacing" textLength="98.2393" x="169" y="740.9951">summary.csv,</text><text fill="#000000" font-family="Verdana" font-size="14" lengthAdjust="spacing" textLength="66.1172" x="169" y="757.292">bugs.csv,</text><text fill="#000000" font-family="Verdana" font-size="14" lengthAdjust="spacing" textLength="98.1162" x="169" y="773.5889">aliases.csv, ...</text></g><!--link seed to csmith--><g class="link" data-entity-1="ent0002" data-entity-2="ent0003" data-link-type="dependency" data-source-line="9" id="lnk5"><path d="M218.52,30 C230.18,30 235.83,30 247.49,30" fill="none" id="seed-to-csmith" style="stroke:#000000;stroke-width:1;"/><polygon fill="#000000" points="253.49,30,244.49,26,248.49,30,244.49,34,253.49,30" style="stroke:#000000;stroke-width:1;"/></g><!--link csmith to random_c--><g class="link" data-entity-1="ent0003" data-entity-2="ent0004" data-link-type="dependency" data-source-line="10" id="lnk6"><path d="M324.62,30 C336.36,30 342.1,30 353.83,30" fill="none" id="csmith-to-random_c" style="stroke:#000000;stroke-width:1;"/><polygon fill="#000000" points="359.83,30,350.83,26,354.83,30,350.83,34,359.83,30" style="stroke:#000000;stroke-width:1;"/></g><!--link random_c to gen--><g class="link" data-entity-1="ent0004" data-entity-2="ent0007" data-link-type="dependency" data-source-line="13" id="lnk8"><path d="M403,48.24 C403,65.2 403,84.95 403,101.87" fill="none" id="random_c-to-gen" style="stroke:#000000;stroke-width:1;"/><polygon fill="#000000" points="403,107.87,407,98.87,403,102.87,399,98.87,403,107.87" style="stroke:#000000;stroke-width:1;"/></g><!--link gen to rw_c--><g class="link" data-entity-1="ent0007" data-entity-2="ent0009" data-link-type="dependency" data-source-line="20" id="lnk13"><path d="M372.04,144.16 C342.62,160.46 303.2485,182.2726 269.5985,200.9126" fill="none" id="gen-to-rw_c" style="stroke:#000000;stroke-width:1;"/><polygon fill="#000000" points="264.35,203.82,274.1611,202.958,268.7238,201.3972,270.2846,195.9599,264.35,203.82" style="stroke:#000000;stroke-width:1;"/></g><!--link gen to harness--><g class="link" data-entity-1="ent0007" data-entity-2="ent0010" data-link-type="dependency" data-source-line="21" id="lnk14"><path d="M392.99,144.39 C382.08,163.35 367.714,188.3104 356.854,207.1704" fill="none" id="gen-to-harness" style="stroke:#000000;stroke-width:1;"/><polygon fill="#000000" points="353.86,212.37,361.8174,206.5666,356.355,208.037,354.8847,202.5746,353.86,212.37" style="stroke:#000000;stroke-width:1;"/></g><!--link gen to plan--><g class="link" data-entity-1="ent0007" data-entity-2="ent0011" data-link-type="dependency" data-source-line="22" id="lnk15"><path d="M413.01,144.39 C423.92,163.35 438.286,188.3104 449.146,207.1704" fill="none" id="gen-to-plan" style="stroke:#000000;stroke-width:1;"/><polygon fill="#000000" points="452.14,212.37,451.1153,202.5746,449.645,208.037,444.1826,206.5666,452.14,212.37" style="stroke:#000000;stroke-width:1;"/></g><!--link gen to targets--><g class="link" data-entity-1="ent0007" data-entity-2="ent0012" data-link-type="dependency" data-source-line="23" id="lnk16"><path d="M433.13,144.16 C466.46,163.13 514.6162,190.5608 547.8562,209.4908" fill="none" id="gen-to-targets" style="stroke:#000000;stroke-width:1;"/><polygon fill="#000000" points="553.07,212.46,547.2288,204.5303,548.7252,209.9856,543.2698,211.482,553.07,212.46" style="stroke:#000000;stroke-width:1;"/></g><!--link rw_c to gcc_o2--><g class="link" data-entity-1="ent0009" data-entity-2="ent0017" data-link-type="dependency" data-source-line="30" id="lnk21"><path d="M175.79,257.1 C144.99,275.78 109.2303,297.4687 82.3203,313.7887" fill="none" id="rw_c-to-gcc_o2" style="stroke:#000000;stroke-width:1;"/><polygon fill="#000000" points="77.19,316.9,86.9596,315.6532,81.4652,314.3072,82.8112,308.8128,77.19,316.9" style="stroke:#000000;stroke-width:1;"/></g><!--link rw_c to gcc_lto--><g class="link" data-entity-1="ent0009" data-entity-2="ent0018" data-link-type="dependency" data-source-line="31" id="lnk22"><path d="M203.51,257.1 C192.98,275.72 181.9548,295.198 172.7148,311.528" fill="none" id="rw_c-to-gcc_lto" style="stroke:#000000;stroke-width:1;"/><polygon fill="#000000" points="169.76,316.75,177.6735,310.8868,172.2223,312.3983,170.7108,306.9471,169.76,316.75" style="stroke:#000000;stroke-width:1;"/></g><!--link rw_c to clang_o2--><g class="link" data-entity-1="ent0009" data-entity-2="ent0019" data-link-type="dependency" data-source-line="32" id="lnk23"><path d="M232.74,257.1 C243.45,275.72 254.6767,295.22 264.0767,311.55" fill="none" id="rw_c-to-clang_o2" style="stroke:#000000;stroke-width:1;"/><polygon fill="#000000" points="267.07,316.75,266.0468,306.9544,264.5756,312.4166,259.1134,310.9455,267.07,316.75" style="stroke:#000000;stroke-width:1;"/></g><!--link rw_c to more_compilers--><g class="link" data-entity-1="ent0009" data-entity-2="ent0020" data-link-type="dependency" data-source-line="33" id="lnk24"><path d="M256.46,257.1 C288.18,278.21 326.6554,303.8152 350.1954,319.4852" fill="none" id="rw_c-to-more_compilers" style="stroke:#000000;stroke-width:1;"/><polygon fill="#000000" points="355.19,322.81,349.9146,314.4931,351.0278,320.0394,345.4816,321.1526,355.19,322.81" style="stroke:#000000;stroke-width:1;"/></g><!--link gcc_o2 to analyze--><g class="link" data-entity-1="ent0017" data-entity-2="ent0025" data-link-type="dependency" data-source-line="37" id="lnk26"><path d="M77.29,353.16 C104.16,369.46 139.7895,391.069 170.5295,409.709" fill="none" id="gcc_o2-to-analyze" style="stroke:#000000;stroke-width:1;"/><polygon fill="#000000" points="175.66,412.82,170.0383,404.7332,171.3846,410.2275,165.8903,411.5738,175.66,412.82" style="stroke:#000000;stroke-width:1;"/></g><!--link gcc_lto to analyze--><g class="link" data-entity-1="ent0018" data-entity-2="ent0025" data-link-type="dependency" data-source-line="38" id="lnk27"><path d="M169.84,353.39 C179.08,369.72 190.0747,389.1483 200.5847,407.7183" fill="none" id="gcc_lto-to-analyze" style="stroke:#000000;stroke-width:1;"/><polygon fill="#000000" points="203.54,412.94,202.5882,403.1372,201.0772,408.5886,195.6259,407.0777,203.54,412.94" style="stroke:#000000;stroke-width:1;"/></g><!--link clang_o2 to analyze--><g class="link" data-entity-1="ent0019" data-entity-2="ent0025" data-link-type="dependency" data-source-line="39" id="lnk28"><path d="M266.99,353.39 C257.59,369.72 246.3934,389.17 235.7034,407.74" fill="none" id="clang_o2-to-analyze" style="stroke:#000000;stroke-width:1;"/><polygon fill="#000000" points="232.71,412.94,240.6667,407.1357,235.2045,408.6067,233.7335,403.1445,232.71,412.94" style="stroke:#000000;stroke-width:1;"/></g><!--link more_compilers to analyze--><g class="link" data-entity-1="ent0020" data-entity-2="ent0025" data-link-type="dependency" data-source-line="40" id="lnk29"><path d="M355.23,347.16 C331.68,362.83 293.1647,388.4754 261.4347,409.5954" fill="none" id="more_compilers-to-analyze" style="stroke:#000000;stroke-width:1;"/><polygon fill="#000000" points="256.44,412.92,266.1485,411.263,260.6023,410.1495,261.7157,404.6033,256.44,412.92" style="stroke:#000000;stroke-width:1;"/></g><!--link analyze to json1--><g class="link" data-entity-1="ent0025" data-entity-2="ent0030" data-link-type="dependency" data-source-line="46" id="lnk33"><path d="M181.28,466.1 C154.58,484.72 124.071,505.9873 100.661,522.3173" fill="none" id="analyze-to-json1" style="stroke:#000000;stroke-width:1;"/><polygon fill="#000000" points="95.74,525.75,105.41,523.8816,99.8408,522.8894,100.833,517.3202,95.74,525.75" style="stroke:#000000;stroke-width:1;"/></g><!--link analyze to json2--><g class="link" data-entity-1="ent0025" data-entity-2="ent0031" data-link-type="dependency" data-source-line="47" id="lnk34"><path d="M218,466.1 C218,484.72 218,503.42 218,519.75" fill="none" id="analyze-to-json2" style="stroke:#000000;stroke-width:1;"/><polygon fill="#000000" points="218,525.75,222,516.75,218,520.75,214,516.75,218,525.75" style="stroke:#000000;stroke-width:1;"/></g><!--link analyze to json3--><g class="link" data-entity-1="ent0025" data-entity-2="ent0032" data-link-type="dependency" data-source-line="48" id="lnk35"><path d="M255.96,466.1 C283.57,484.72 315.2358,506.0648 339.4458,522.3948" fill="none" id="analyze-to-json3" style="stroke:#000000;stroke-width:1;"/><polygon fill="#000000" points="344.42,525.75,339.1955,517.4011,340.2748,522.954,334.7219,524.0334,344.42,525.75" style="stroke:#000000;stroke-width:1;"/></g><!--link json1 to collect--><g class="link" data-entity-1="ent0030" data-entity-2="ent0036" data-link-type="dependency" data-source-line="52" id="lnk37"><path d="M97.62,562.02 C124.1,578.95 159.4454,601.5572 186.0254,618.5572" fill="none" id="json1-to-collect" style="stroke:#000000;stroke-width:1;"/><polygon fill="#000000" points="191.08,621.79,185.6533,613.5711,186.8678,619.096,181.3429,620.3105,191.08,621.79" style="stroke:#000000;stroke-width:1;"/></g><!--link json2 to collect--><g class="link" data-entity-1="ent0031" data-entity-2="ent0036" data-link-type="dependency" data-source-line="53" id="lnk38"><path d="M218,562.24 C218,579.2 218,598.95 218,615.87" fill="none" id="json2-to-collect" style="stroke:#000000;stroke-width:1;"/><polygon fill="#000000" points="218,621.87,222,612.87,218,616.87,214,612.87,218,621.87" style="stroke:#000000;stroke-width:1;"/></g><!--link json3 to collect--><g class="link" data-entity-1="ent0032" data-entity-2="ent0036" data-link-type="dependency" data-source-line="54" id="lnk39"><path d="M342.47,562.02 C315.01,579.01 278.1625,601.7934 250.6825,618.7934" fill="none" id="json3-to-collect" style="stroke:#000000;stroke-width:1;"/><polygon fill="#000000" points="245.58,621.95,255.3382,620.6168,249.8321,619.3195,251.1294,613.8134,245.58,621.95" style="stroke:#000000;stroke-width:1;"/></g><!--link collect to results--><g class="link" data-entity-1="ent0036" data-entity-2="ent0040" data-link-type="dependency" data-source-line="57" id="lnk41"><path d="M218,658.27 C218,674.17 218,692.21 218,711.9" fill="none" id="collect-to-results" style="stroke:#000000;stroke-width:1;"/><polygon fill="#000000" points="218,717.9,222,708.9,218,712.9,214,708.9,218,717.9" style="stroke:#000000;stroke-width:1;"/></g><?plantuml-src RL91RiCW4Bpp2ffJApMMwjnxwGDwo3MIHSZ6eGLi0MxglhxB0exjvEIT6PWTx_8KBc20zreeovZ_LhONJXWkEzDt5cpOXr43To23iAq6ngQIRpp0QSE5vx6O2nzxeyA59EbZoSugyaxOKsSgIKe2ZSIsU9rltylPz8d4xSYKXszQiE14WEOYd0NlgtuaF-HPkS2tU3iIgyO7--pWwbG8O5zIYYlQfqF5ByNBA6iu85j9_qDI19aFmhKGV1L-0qaPCuRDAGJv5r0y2oQZ0gQhiq6s4d_biqx_9sNJrNVgMOTkqh6U7v3etqu6X5OMLLMHPZe7JHmo_fMB6QvbYBdh75ENGjnS2xFsckrEMA77FsYEoWetukPm8IXnDrZUW-E9Jvl9Pt6K586i2vTJBBWIP44kiooal462NldgotUM6iVYxP7A9xb-AD_q7MEv3RLCZckclcDsYs79JclSLEF03pfCxppJZ95hsa6coFMEsIsOdDmFniGLu9j-FTZZqFfS2gs4XuHuUHuv0iicwMKdxXy0?></g></svg>